<svg xmlns="http://www.w3.org/2000/svg" viewBox="0 0 1280 800" role="img" aria-label="Relai dashboard preview" preserveAspectRatio="xMidYMid slice">
  <defs>
    <linearGradient id="bg" x1="0" y1="0" x2="0" y2="1">
      <stop offset="0%" stop-color="#FAFAFB"/>
      <stop offset="100%" stop-color="#F4F4F6"/>
    </linearGradient>
    <linearGradient id="card" x1="0" y1="0" x2="0" y2="1">
      <stop offset="0%" stop-color="#FFFFFF"/>
      <stop offset="100%" stop-color="#FBFBFC"/>
    </linearGradient>
  </defs>

  <!-- Browser chrome frame -->
  <rect x="0" y="0" width="1280" height="800" rx="14" fill="url(#bg)"/>
  <rect x="0" y="0" width="1280" height="44" fill="#F0F1F4"/>
  <circle cx="24" cy="22" r="6" fill="#E5E6EA"/>
  <circle cx="44" cy="22" r="6" fill="#E5E6EA"/>
  <circle cx="64" cy="22" r="6" fill="#E5E6EA"/>
  <rect x="120" y="12" width="320" height="20" rx="10" fill="#FFFFFF" stroke="#E5E6EA" stroke-width="1"/>

  <!-- Top nav -->
  <rect x="32" y="76" width="120" height="14" rx="3" fill="#252830"/>
  <rect x="500" y="78" width="50" height="10" rx="2" fill="#A0A3AB"/>
  <rect x="572" y="78" width="50" height="10" rx="2" fill="#A0A3AB"/>
  <rect x="644" y="78" width="60" height="10" rx="2" fill="#252830"/>
  <rect x="726" y="78" width="50" height="10" rx="2" fill="#A0A3AB"/>
  <circle cx="1232" cy="83" r="14" fill="#E5E6EA"/>
  <line x1="32" y1="118" x2="1248" y2="118" stroke="#E5E6EA" stroke-width="1"/>

  <!-- Page title -->
  <rect x="32" y="148" width="180" height="24" rx="3" fill="#252830"/>
  <rect x="32" y="184" width="100" height="12" rx="2" fill="#A0A3AB"/>
  <rect x="1108" y="152" width="140" height="36" rx="6" fill="#4F46E5"/>
  <rect x="1132" y="166" width="92" height="8" rx="2" fill="#FFFFFF"/>

  <!-- Metrics row -->
  <g transform="translate(32,224)">
    <rect width="232" height="84" rx="10" fill="url(#card)" stroke="#E5E6EA" stroke-width="1"/>
    <rect x="20" y="20" width="60" height="9" rx="2" fill="#A0A3AB"/>
    <rect x="20" y="40" width="40" height="24" rx="3" fill="#252830"/>
  </g>
  <g transform="translate(280,224)">
    <rect width="232" height="84" rx="10" fill="url(#card)" stroke="#E5E6EA" stroke-width="1"/>
    <rect x="20" y="20" width="60" height="9" rx="2" fill="#A0A3AB"/>
    <rect x="20" y="40" width="40" height="24" rx="3" fill="#252830"/>
  </g>
  <g transform="translate(528,224)">
    <rect width="232" height="84" rx="10" fill="url(#card)" stroke="#E5E6EA" stroke-width="1"/>
    <rect x="20" y="20" width="60" height="9" rx="2" fill="#A0A3AB"/>
    <rect x="20" y="40" width="40" height="24" rx="3" fill="#252830"/>
  </g>
  <g transform="translate(776,224)">
    <rect width="232" height="84" rx="10" fill="url(#card)" stroke="#E5E6EA" stroke-width="1"/>
    <rect x="20" y="20" width="60" height="9" rx="2" fill="#A0A3AB"/>
    <rect x="20" y="40" width="40" height="24" rx="3" fill="#D8453B"/>
  </g>
  <g transform="translate(1024,224)">
    <rect width="224" height="84" rx="10" fill="url(#card)" stroke="#E5E6EA" stroke-width="1"/>
    <rect x="20" y="20" width="60" height="9" rx="2" fill="#A0A3AB"/>
    <rect x="20" y="40" width="40" height="24" rx="3" fill="#252830"/>
  </g>

  <!-- Needs attention section -->
  <g transform="translate(32,340)">
    <rect width="1216" height="220" rx="10" fill="url(#card)" stroke="#E5E6EA" stroke-width="1"/>
    <rect x="24" y="24" width="14" height="14" rx="2" fill="#D89A2C"/>
    <rect x="48" y="27" width="180" height="10" rx="2" fill="#252830"/>
    <rect x="232" y="29" width="20" height="6" rx="1" fill="#A0A3AB"/>
    <line x1="0" y1="64" x2="1216" y2="64" stroke="#E5E6EA" stroke-width="1"/>

    <!-- Row 1 -->
    <rect x="24" y="86" width="220" height="11" rx="2" fill="#252830"/>
    <rect x="252" y="87" width="100" height="9" rx="2" fill="#A0A3AB"/>
    <rect x="24" y="106" width="80" height="20" rx="4" fill="#FBE6E4"/>
    <rect x="34" y="113" width="60" height="7" rx="1" fill="#D8453B"/>
    <rect x="120" y="106" width="60" height="20" rx="4" fill="#F4F4F6"/>
    <rect x="130" y="113" width="40" height="7" rx="1" fill="#73767E"/>
    <rect x="1140" y="100" width="50" height="20" rx="4" fill="#F4F4F6"/>
    <rect x="1150" y="107" width="30" height="6" rx="1" fill="#73767E"/>

    <!-- Row 2 -->
    <line x1="0" y1="148" x2="1216" y2="148" stroke="#F4F4F6" stroke-width="1"/>
    <rect x="24" y="166" width="180" height="11" rx="2" fill="#252830"/>
    <rect x="212" y="167" width="120" height="9" rx="2" fill="#A0A3AB"/>
    <rect x="24" y="186" width="90" height="20" rx="4" fill="#FBF1DD"/>
    <rect x="34" y="193" width="70" height="7" rx="1" fill="#D89A2C"/>
    <rect x="1140" y="180" width="50" height="20" rx="4" fill="#F4F4F6"/>
    <rect x="1150" y="187" width="30" height="6" rx="1" fill="#73767E"/>
  </g>

  <!-- Ready to review section -->
  <g transform="translate(32,588)">
    <rect width="1216" height="180" rx="10" fill="url(#card)" stroke="#E5E6EA" stroke-width="1"/>
    <circle cx="38" cy="40" r="6" fill="#1E9D5F"/>
    <rect x="56" y="35" width="200" height="10" rx="2" fill="#252830"/>
    <rect x="260" y="37" width="20" height="6" rx="1" fill="#A0A3AB"/>
    <line x1="0" y1="68" x2="1216" y2="68" stroke="#E5E6EA" stroke-width="1"/>

    <rect x="24" y="92" width="200" height="11" rx="2" fill="#252830"/>
    <rect x="232" y="93" width="100" height="9" rx="2" fill="#A0A3AB"/>
    <rect x="1100" y="86" width="90" height="22" rx="4" fill="#E2F6EB"/>
    <rect x="1110" y="94" width="70" height="7" rx="1" fill="#1E9D5F"/>

    <line x1="0" y1="134" x2="1216" y2="134" stroke="#F4F4F6" stroke-width="1"/>
    <rect x="24" y="148" width="180" height="11" rx="2" fill="#252830"/>
    <rect x="212" y="149" width="120" height="9" rx="2" fill="#A0A3AB"/>
  </g>
</svg>
